<?xml version="1.0" encoding="UTF-8" standalone="no"?>
<!-- Created with Inkscape (http://www.inkscape.org/) -->

<svg
   width="291.0036mm"
   height="83.960251mm"
   viewBox="0 0 291.0036 83.960251"
   version="1.1"
   id="svg5"
   sodipodi:docname="logov2.svg"
   inkscape:export-filename="../../Downloads/aurahapticV2.png"
   inkscape:export-xdpi="96"
   inkscape:export-ydpi="96"
   xml:space="preserve"
   xmlns:inkscape="http://www.inkscape.org/namespaces/inkscape"
   xmlns:sodipodi="http://sodipodi.sourceforge.net/DTD/sodipodi-0.dtd"
   xmlns:xlink="http://www.w3.org/1999/xlink"
   xmlns="http://www.w3.org/2000/svg"
   xmlns:svg="http://www.w3.org/2000/svg"><sodipodi:namedview
     id="namedview7"
     pagecolor="#505050"
     bordercolor="#ffffff"
     borderopacity="1"
     inkscape:showpageshadow="0"
     inkscape:pageopacity="0"
     inkscape:pagecheckerboard="1"
     inkscape:deskcolor="#505050"
     inkscape:document-units="mm"
     showgrid="false"
     showguides="true" /><defs
     id="defs2"><linearGradient
       inkscape:collect="always"
       id="linearGradient410"><stop
         style="stop-color:#3000ff;stop-opacity:1;"
         offset="0"
         id="stop406" /><stop
         style="stop-color:#822323;stop-opacity:0.94566321;"
         offset="1"
         id="stop408" /></linearGradient><linearGradient
       inkscape:collect="always"
       id="linearGradient923"><stop
         style="stop-color:#5600a3;stop-opacity:1;"
         offset="0.25161541"
         id="stop919" /><stop
         style="stop-color:#2600b3;stop-opacity:1;"
         offset="1"
         id="stop921" /></linearGradient><linearGradient
       inkscape:collect="always"
       xlink:href="#linearGradient923"
       id="linearGradient925"
       x1="47.525787"
       y1="70.76709"
       x2="274.14465"
       y2="69.332794"
       gradientUnits="userSpaceOnUse"
       gradientTransform="matrix(0.86708685,0,0,0.86708685,25.08266,18.974165)" /><linearGradient
       inkscape:collect="always"
       xlink:href="#linearGradient410"
       id="linearGradient412"
       x1="105.59106"
       y1="21.822126"
       x2="74.130829"
       y2="-18.16968"
       gradientUnits="userSpaceOnUse"
       gradientTransform="translate(-67.032673,73.584916)" /><linearGradient
       inkscape:collect="always"
       xlink:href="#linearGradient410"
       id="linearGradient1367"
       gradientUnits="userSpaceOnUse"
       gradientTransform="translate(-66.913524,74.05117)"
       x1="105.59106"
       y1="21.822126"
       x2="74.130829"
       y2="-18.16968" /></defs><g
     inkscape:label="Layer 1"
     inkscape:groupmode="layer"
     id="layer1"
     transform="translate(5.5793114,-37.285618)"><rect
       style="fill:#000000;stroke-width:0.274062"
       id="rect234"
       width="291.0036"
       height="83.960251"
       x="-5.5793114"
       y="37.285618" /><text
       xml:space="preserve"
       style="font-size:45.8834px;font-family:'Dileto FREE';-inkscape-font-specification:'Dileto FREE';fill:url(#linearGradient925);fill-opacity:1;stroke-width:0.229416"
       x="57.236607"
       y="90.660851"
       id="text290"><tspan
         id="tspan288"
         style="font-style:normal;font-variant:normal;font-weight:normal;font-stretch:normal;font-family:'Arista Pro Trial';-inkscape-font-specification:'Arista Pro Trial';fill:url(#linearGradient925);fill-opacity:1;stroke-width:0.229416"
         x="57.236607"
         y="90.660851"
         sodipodi:role="line">aurahaptic.</tspan></text><path
       id="path2539"
       style="display:none;fill:url(#linearGradient412);fill-opacity:1;stroke-width:0.37;stroke-dasharray:none"
       d="M 26.499276,57.725974 A 21.539558,21.539558 0 0 0 4.959509,79.265744 21.539558,21.539558 0 0 0 26.499276,100.80551 21.539558,21.539558 0 0 0 48.039046,79.265744 21.539558,21.539558 0 0 0 26.499276,57.725974 Z m 0,9.451103 a 12.088531,12.088531 0 0 1 12.08867,12.088667 12.088531,12.088531 0 0 1 -12.08867,12.088669 12.088531,12.088531 0 0 1 -12.08867,-12.088669 12.088531,12.088531 0 0 1 12.08867,-12.088667 z m 6.6175,16.40672 c -0.32215,0 -0.58386,-0.261155 -0.58386,-0.583303 V 76.87972 c 0,-0.322148 0.26171,-0.583303 0.58386,-0.583303 h 2.32766 c 0.32215,0 0.58386,0.261155 0.58386,0.583303 l -5.6e-4,6.120774 c 0,0.322148 -0.26115,0.583303 -0.5833,0.583303 h -2.32766 m -9.89338,-3.897913 c 1.50594,0.366501 3.06232,0.371493 4.55052,-0.219018 -1.92955,-0.494031 -3.72049,-1.349019 -5.4105,-2.377007 -0.19296,-0.116993 -0.38425,-0.236203 -0.57443,-0.357629 -0.27003,-0.24397 -0.60715,-0.200163 -0.91765,-0.09038 -0.10535,0.03718 -0.20793,0.08151 -0.3033,0.124754 1.51315,1.118359 3.18155,2.080922 4.98745,2.631506 -2.28774,-0.257828 -4.16184,-1.73715 -6.05385,-2.92371 -0.56767,-0.39534 -1.15236,0.137506 -1.4276,0.619337 0.8713,0.658712 1.84783,1.279712 2.8838,1.772638 0.73079,0.347652 1.49152,0.631543 2.26556,0.819506 m 8.94191,-2.453527 c -0.0138,-0.140281 -0.0948,-0.26614 -0.21846,-0.3349 L 31.717856,76.791 c -0.0205,-0.02106 -0.27003,-0.177979 -0.47352,-0.280004 -0.11034,-0.08095 -0.22345,-0.157467 -0.33823,-0.231212 -1.12889,-0.724138 -2.47958,-1.122247 -3.81862,-1.248111 -0.26559,-0.02495 -0.53119,-0.03937 -0.794,-0.04325 -0.2911,-0.0039 -0.57942,0.0039 -0.8622,0.02384 -0.85998,0.29276 -0.79123,1.668397 0.0687,1.90904 0.0882,0.02938 0.17965,0.05655 0.27391,0.08206 0.86663,0.23565 1.94119,0.347099 2.48402,1.057373 0.0871,0.114218 0.1608,0.243411 0.21735,0.391453 -0.1547,1.100622 -1.46213,1.462138 -2.39086,1.685589 -2.17962,0.289987 -4.29658,-0.335459 -6.21422,-1.347914 -0.11848,-0.06214 -0.23636,-0.125865 -0.3533,-0.191297 -0.79783,-0.446343 -1.55873,-0.954789 -2.27238,-1.487636 -0.20743,-0.11256 -0.4067,-0.131409 -0.58657,-0.08539 -0.72979,0.186858 -1.1386,1.452714 -0.46248,1.97724 0.78235,0.715265 1.63402,1.348466 2.53619,1.898497 0.16041,0.09759 0.32225,0.192955 0.48577,0.285555 1.74702,0.988614 3.66493,1.675046 5.62885,2.046539 0.14583,0.02548 0.29388,0.04881 0.44247,0.06986 0.14416,0.03718 0.28888,0.07153 0.43526,0.09981 0.67534,0.162459 1.40059,0.298301 2.12195,0.329909 0.38258,0.01664 0.76406,0.0032 1.13666,-0.05044 0.16634,-0.0045 0.33324,-0.0072 0.49958,-0.0072 0.40975,-0.02327 0.84224,-0.05434 1.26752,-0.124761 0.27667,-0.0455 0.54947,-0.108121 0.81007,-0.195723 0.3654,-0.22789 0.60826,-0.633207 0.60826,-1.09563 0,-0.231771 0,-0.485718 0,-0.751306 0,-0.352644 0,-0.726353 0,-1.10339 0,-0.01495 0,-0.02996 0,-0.04439 0,-0.757961 0,-1.517027 0,-2.115299 0,-0.381476 0,-0.697521 0,-0.905444 0,-0.02275 0,-0.04491 0,-0.06543 0,-0.01384 -0.002,-0.02775 -0.003,-0.0416" /><path
       id="path1289"
       style="display:inline;fill:url(#linearGradient1367);fill-opacity:1;stroke-width:0.37;stroke-dasharray:none"
       d="M 26.618423,58.192228 A 21.539558,21.539558 0 0 0 5.0786528,79.731998 21.539558,21.539558 0 0 0 26.618423,101.27177 21.539558,21.539558 0 0 0 48.158193,79.731998 21.539558,21.539558 0 0 0 26.618423,58.192228 Z m 0,9.451103 A 12.088531,12.088531 0 0 1 38.707093,79.731998 12.088531,12.088531 0 0 1 26.618423,91.820667 12.088531,12.088531 0 0 1 14.529754,79.731998 12.088531,12.088531 0 0 1 26.618423,67.643331 Z m 4.00266,19.780116 c 0,0.303024 -0.24588,0.548442 -0.54891,0.548442 h -5.75654 c -0.303029,0 -0.548439,-0.245418 -0.548439,-0.548442 V 85.23389 c 0,-0.303493 0.24541,-0.548911 0.548439,-0.548911 h 5.75654 c 0.30303,0 0.54891,0.245418 0.54891,0.548911 v 2.189557 m -6.23051,-3.182468 h 5.57763 c 0,0 2.09635,-5.648821 2.7394,-7.381263 0.64727,-1.743215 -0.94654,-2.141316 -1.54416,-0.498329 -0.42948,1.184468 -0.74703,1.344645 -0.74703,1.344645 0,0 -0.65663,-0.0014 -0.5475,-0.696911 0.1494,-0.946076 0.34845,-2.091671 0.64726,-3.834885 0.185,-1.080494 -1.54369,-1.244886 -1.6931,-0.348455 -0.14941,0.896429 -0.49833,3.28691 -0.59762,3.834884 -0.0998,0.547506 -0.73298,0.995253 -0.79714,-0.348924 -0.0417,-0.901582 -0.0993,-2.220936 -0.0993,-3.983821 0,-1.195241 -1.89262,-1.045835 -1.89262,0.04965 0,0.76576 0.0609,3.883594 0.0501,4.482151 -0.0113,0.59762 -0.27587,0.786835 -0.64774,-0.04965 -0.39857,-0.89643 -0.821489,-1.958189 -1.195239,-2.838695 -0.54797,-1.295 -2.03247,-0.407 -1.6931,0.497861 0.29694,0.790582 1.01446,2.539885 1.59381,3.88453 0.29694,0.688013 0.672089,2.053265 -0.24916,1.344645 -0.64727,-0.498329 -0.89643,-0.996189 -1.64346,-1.49405 -0.74712,-0.498329 -1.50037,0.573265 -1.21088,0.929683 0.6474,0.797139 1.78649,2.050455 2.52274,3.253657 0.54798,0.89643 1.427079,1.853278 1.427079,1.853278" /></g></svg>
