<?xml version="1.0" encoding="UTF-8" standalone="no"?>
<!-- Created with Inkscape (http://www.inkscape.org/) -->

<svg
   width="291.0036mm"
   height="83.960251mm"
   viewBox="0 0 291.0036 83.960251"
   version="1.1"
   id="svg5"
   sodipodi:docname="logoBWv2.svg"
   inkscape:export-filename="../../Downloads/aurahapticV2.png"
   inkscape:export-xdpi="96"
   inkscape:export-ydpi="96"
   inkscape:version="1.2.2 (b0a8486, 2022-12-01)"
   xmlns:inkscape="http://www.inkscape.org/namespaces/inkscape"
   xmlns:sodipodi="http://sodipodi.sourceforge.net/DTD/sodipodi-0.dtd"
   xmlns="http://www.w3.org/2000/svg"
   xmlns:svg="http://www.w3.org/2000/svg">
  <sodipodi:namedview
     id="namedview7"
     pagecolor="#505050"
     bordercolor="#ffffff"
     borderopacity="1"
     inkscape:showpageshadow="0"
     inkscape:pageopacity="0"
     inkscape:pagecheckerboard="1"
     inkscape:deskcolor="#505050"
     inkscape:document-units="mm"
     showgrid="false"
     showguides="true"
     inkscape:zoom="1.2365254"
     inkscape:cx="549.92807"
     inkscape:cy="158.50868"
     inkscape:window-width="1920"
     inkscape:window-height="941"
     inkscape:window-x="0"
     inkscape:window-y="32"
     inkscape:window-maximized="1"
     inkscape:current-layer="layer1" />
  <defs
     id="defs2" />
  <g
     inkscape:label="Layer 1"
     inkscape:groupmode="layer"
     id="layer1"
     transform="translate(5.5793114,-37.285618)">
    <text
       xml:space="preserve"
       style="font-size:45.8834px;font-family:'Dileto FREE';-inkscape-font-specification:'Dileto FREE';fill:#ffffff;fill-opacity:1;stroke-width:0.229416"
       x="57.765774"
       y="90.660851"
       id="text290"><tspan
         id="tspan288"
         style="font-style:normal;font-variant:normal;font-weight:normal;font-stretch:normal;font-family:'Arista Pro Trial';-inkscape-font-specification:'Arista Pro Trial';fill:#ffffff;fill-opacity:1;stroke-width:0.229416"
         x="57.765774"
         y="90.660851"
         sodipodi:role="line">aurahaptic.</tspan></text>
    <path
       id="path2539"
       style="fill:#ffffff;fill-opacity:1;stroke-width:0.370416"
       d="M 27.747756,57.725973 A 21.539558,21.539558 0 0 0 6.2079874,79.265743 21.539558,21.539558 0 0 0 27.747756,100.80551 21.539558,21.539558 0 0 0 49.287524,79.265743 21.539558,21.539558 0 0 0 27.747756,57.725973 Z m 0,9.451103 A 12.088531,12.088531 0 0 1 39.836424,79.265743 12.088531,12.088531 0 0 1 27.747756,91.354412 12.088531,12.088531 0 0 1 15.659088,79.265743 12.088531,12.088531 0 0 1 27.747756,67.177076 Z" />
  </g>
</svg>
